<svg version="1.2" xmlns="http://www.w3.org/2000/svg" viewBox="0 0 512 512" width="512" height="512">
	<style>
		.s0 { fill: #050a30 } 
		.s1 { fill: #64d98a } 
	</style>
	<path id="Layer 1" fill-rule="evenodd" class="s0" d="m101 0h310c55.78 0 101 45.22 101 101v310c0 55.78-45.22 101-101 101h-310c-55.78 0-101-45.22-101-101v-310c0-55.78 45.22-101 101-101z"/>
	<path id="AK" class="s1" aria-label="AK"  d="m38.1 371l91.4-231h51.9l91.2 231h-55.8l-16.8-46.4h-88.9l-17 46.4zm117.1-168l-26.8 75.8h54.2l-26.9-75.8zm308.4-63l-78.7 111.6 87.7 119.4h-62.4l-71.1-101v101h-52.3v-231h52.3v94.6l65.4-94.6z"/>
	<path id="Shape 1 copy" fill-rule="evenodd" class="s0" d="m129 222.8l26.9-53.8 26.9 53.8z"/>
	<path id="Shape 1" fill-rule="evenodd" class="s0" d="m171.96 254.74l-49.29 132.26-30.63-11.41 49.29-132.27z"/>
	<path id="Shape 1 copy 2" fill-rule="evenodd" class="s0" d="m468.52 198.82l-96.51 134.4-31.13-22.35 96.51-134.4z"/>
</svg>